<svg width="547" height="105" viewBox="0 0 547 105" fill="none" xmlns="http://www.w3.org/2000/svg">
<g clip-path="url(#clip0_16_1612)">
<path d="M64.0363 48.5297C50.4764 84.5546 42.8878 90.7874 27.3374 90.1641C16.6388 89.7901 9.17458 84.9286 3.45204 79.8178L-0.03125 83.6821C5.06927 88.5436 16.0167 96.6461 30.4475 97.02C54.9549 97.5187 70.1321 85.4272 82.448 51.0228C89.4145 31.8261 93.7686 20.4826 103.845 15.7458C107.453 14.1253 111.434 13.128 115.415 13.128C122.257 13.0034 128.85 14.9978 134.573 18.6128L137.061 14.4992C130.094 9.88706 121.884 7.26933 113.424 7.02002C92.7734 7.02002 75.2326 18.6128 64.0363 48.5297Z" fill="white"/>
<path d="M163.683 52.02H134.697V22.7263H118.4V89.0421H134.697V56.8814H163.683V89.0421H179.98V22.7263H163.683V52.02Z" fill="white"/>
<path d="M209.961 22.6018H193.664V88.9176H209.961V22.6018Z" fill="white"/>
<path d="M253.75 54.8871C246.41 79.3192 242.056 86.9231 231.98 86.7984C226.63 86.5491 221.53 84.6793 217.3 81.3137L214.688 85.0533C220.41 89.2915 227.252 91.7846 234.343 92.1585C251.511 92.7818 261.463 81.6876 268.554 62.6156C269.922 59.0007 271.291 54.8871 272.535 50.5242C278.133 31.5768 283.607 25.4688 291.942 24.9702C295.674 24.7209 299.53 25.7181 302.64 27.8372L304.755 23.8483C300.401 21.1059 295.301 19.7347 290.2 19.8594C273.655 20.2333 260.965 31.2029 253.75 54.8871Z" fill="white"/>
<path d="M325.531 84.1808V56.5076H352.278V51.7708H325.531V27.3386H355.512V22.6018H309.234V88.9176H355.512V84.1808H325.531Z" fill="white"/>
<path d="M384 22.6018H367.703V88.9176H384V22.6018Z" fill="white"/>
<path d="M508.777 25.718C512.136 25.5934 515.495 26.3413 518.481 27.7125C527.438 31.8261 530.672 42.0477 530.672 55.7596C530.672 69.4715 527.438 79.5684 518.481 83.8067C512.26 86.5491 505.294 86.5491 499.074 83.8067C490.117 79.6931 486.882 69.4715 486.882 55.7596C486.882 42.0477 490.117 31.9507 499.074 27.7125C502.184 26.3413 505.418 25.5934 508.777 25.718ZM508.777 90.0394C513.629 90.0394 518.605 89.4161 523.208 88.0449C539.38 82.8094 546.969 70.718 546.969 55.8842C546.969 41.0504 539.38 28.959 523.208 23.7236C513.753 21.1058 503.677 21.1058 494.222 23.7236C478.05 28.959 470.461 41.0504 470.461 55.8842C470.461 70.718 478.05 82.8094 494.222 88.0449C499.074 89.4161 503.925 90.0394 508.777 90.0394Z" fill="white"/>
<path d="M397.686 22.6018H427.294C459.514 22.6018 463.246 47.6572 463.246 55.7597C463.246 63.8622 459.514 88.9176 427.294 88.9176H397.686V22.6018ZM413.982 84.1808H425.801C437.495 84.1808 447.074 77.6988 447.074 55.7597C447.074 33.8207 437.495 27.3386 425.801 27.3386H413.982V84.1808Z" fill="white"/>
</g>
<defs>
<clipPath id="clip0_16_1612">
<rect width="547" height="90" fill="white" transform="translate(0 7)"/>
</clipPath>
</defs>
</svg>
