<svg width="547" height="105" viewBox="0 0 547 105" fill="none" xmlns="http://www.w3.org/2000/svg">
<g clip-path="url(#clip0_16_1552)">
<path d="M84.319 87.5033C89.2319 82.5796 93.0548 76.6693 95.5344 70.165C98.0139 63.6575 99.0972 56.701 98.7086 49.748L72.6757 75.8377L46.6426 101.928C53.5806 102.314 60.5218 101.231 67.0153 98.7463C73.5086 96.2614 79.4029 92.4301 84.3158 87.5066L84.319 87.5033Z" fill="#101010"/>
<path d="M58.8526 61.982L63.8807 47.3563C65.1024 43.8022 67.1143 40.5748 69.7683 37.9182L87.1083 20.5405C91.807 26.1075 95.2185 32.6483 97.1019 39.6937L84.3192 52.5043C81.6685 55.1609 78.4482 57.1805 74.9017 58.4047L60.308 63.4438L55.2799 78.0695C54.0582 81.6236 52.0464 84.851 49.3923 87.5074L36.6096 100.318C29.5828 98.4304 23.0562 95.0116 17.498 90.3025L34.8381 72.9246C37.4887 70.2683 40.7124 68.2487 44.2555 67.0242L58.8492 61.9851L58.8526 61.982Z" fill="#101010"/>
<path d="M39.933 43.0196L54.5267 37.9805C58.0732 36.7562 61.2936 34.7398 63.9442 32.0801L81.2843 14.7023C75.7292 9.99316 69.2029 6.57436 62.1727 4.68677L49.3899 17.4974C46.7393 20.1539 44.7241 23.3813 43.5024 26.9354L38.4742 41.5609L23.8805 46.6C20.3341 47.8244 17.1137 49.8407 14.463 52.5004L1.68359 65.311C3.56708 72.3533 6.97844 78.8938 11.6773 84.4643L29.0174 67.0865C31.668 64.4299 33.6832 61.1993 34.9049 57.6484L39.933 43.0229V43.0196Z" fill="#101010"/>
<path d="M14.4658 17.4973C19.3787 12.5737 25.276 8.74239 31.7661 6.25749C38.2596 3.77259 45.2008 2.69019 52.1422 3.07629L26.1091 29.1661L0.0761201 55.2559C-0.30914 48.3028 0.770906 41.3464 3.25041 34.8388C5.7299 28.3313 9.55286 22.4242 14.4658 17.5006V17.4973Z" fill="#101010"/>
<path d="M485.592 85.5068H499.418V55.3216L527.72 85.4408H547L513.309 50.3123L544.533 19.4111H524.411L499.418 46.1477V19.4738H485.592V85.5068Z" fill="#101010"/>
<path d="M474.17 19.4736H460.344V85.5067H474.17V19.4736Z" fill="#101010"/>
<path d="M390.627 19.4736L412.372 85.5033H433.598L455.343 19.4736H440.674L423.019 74.2504L405.296 19.4736H390.627Z" fill="#101010"/>
<path d="M362.259 19.4734H333.176V85.5063H362.128C381.926 85.5063 390.882 73.6 390.882 52.7175C390.882 31.8352 382.056 19.4734 362.256 19.4734H362.259ZM362.259 74.3161H347.004V30.5977H362.259C372.904 30.5977 376.929 37.9501 376.929 52.7175C376.929 67.4851 372.839 74.3161 362.259 74.3161Z" fill="#101010"/>
<path d="M263.721 85.5063H277.222V29.9475L302.73 85.5031H322.076V19.4734H308.575V69.4354L285.92 19.4734H263.721V85.5063Z" fill="#101010"/>
<path d="M131.558 61.7597C131.037 80.1044 142.786 86.6121 162.197 86.6121C178.622 86.6121 191.148 80.6258 191.148 64.6242C191.148 50.312 180.437 47.6457 168.559 46.4741L156.484 45.3687C149.214 44.7185 146.619 42.5076 146.619 37.0428C146.619 30.5385 151.163 27.4794 160.706 27.4794C170.248 27.4794 175.961 30.7959 176.09 40.2306H190.565C190.565 24.9416 183.426 17.6553 160.446 17.6553C142.009 17.6553 131.755 24.6149 131.755 38.0823C131.755 50.6387 140.257 55.0608 151.943 56.2322L165.25 57.5324C174.727 58.5092 176.676 61.1097 176.676 65.9243C176.676 73.9268 172.132 76.3325 162.201 76.3325C148.763 76.3325 146.622 69.6336 146.751 61.7597H131.561H131.558Z" fill="#101010"/>
<path d="M236.715 19.4734H214.388L191.861 85.5031H206.076L211.269 70.2801H239.96L245.087 85.5031H259.368L236.715 19.4734ZM215.231 58.7664L225.681 28.3207L236.001 58.7664H215.231Z" fill="#101010"/>
</g>
<defs>
<clipPath id="clip0_16_1552">
<rect width="547" height="99" fill="white" transform="translate(0 3)"/>
</clipPath>
</defs>
</svg>
